# xmcd
#
# Track frame offsets:
#	150
#	20852
#	24145
#	40951
#	62269
#	82879
#	104576
#	121293
#	139112
#	156321
#	176741
#	193939
#
# Disc length: 2912 seconds
#
# Revision: 0
# Processed by: cddbd v1.5.2PL0 Copyright (c) Steve Scherf et al.
# Submitted via: EasyCDDAExtractor 12.1.0.1
#
DISCID=9e0b5e0c
DTITLE=Biagio Antonacci - Il Mucchio
DYEAR=1996
DGENRE=Italo
TTITLE0=Se E Vero Che Ci Sei
TTITLE1=Rumori
TTITLE2=Il Mucchio
TTITLE3=Cosi Presto No
TTITLE4=Lasciami Andare Via
TTITLE5=In Una Stanza Quasi Rosa
TTITLE6=Happy Family
TTITLE7=Non Parli Mai
TTITLE8=Potere
TTITLE9=Pago Il Conto
TTITLE10=Giocare
TTITLE11=Dove Il Cielo У Piu Sereno
EXTD=
EXTT0=
EXTT1=
EXTT2=
EXTT3=
EXTT4=
EXTT5=
EXTT6=
EXTT7=
EXTT8=
EXTT9=
EXTT10=
EXTT11=
PLAYORDER=
